<svg version="1.2" baseProfile="tiny-ps" xmlns="http://www.w3.org/2000/svg" viewBox="0 0 40 40" width="40" height="40">
	<title>icon-ig-svg</title>
	<style>
		tspan { white-space:pre }
		.shp0 { fill: #000000 } 
	</style>
	<path id="Layer copy" class="shp0" d="M24.67 14.05C24.67 13.32 25.26 12.73 25.99 12.73C26.72 12.73 27.32 13.32 27.32 14.05C27.32 14.78 26.72 15.38 25.99 15.38C25.26 15.38 24.67 14.78 24.67 14.05Z" />
	<path id="Layer copy 2" fill-rule="evenodd" class="shp0" d="M25.67 20C25.67 23.07 23.17 25.57 20.09 25.57C17.02 25.57 14.52 23.07 14.52 20C14.52 16.93 17.02 14.43 20.09 14.43C23.17 14.43 25.67 16.93 25.67 20ZM23.66 20C23.66 18.03 22.06 16.43 20.09 16.43C18.12 16.43 16.52 18.03 16.52 20C16.52 21.97 18.12 23.57 20.09 23.57C22.06 23.57 23.66 21.97 23.66 20Z" />
	<path id="Layer copy 3" fill-rule="evenodd" class="shp0" d="M24.52 31.32L15.48 31.32C11.74 31.32 8.68 28.26 8.68 24.52L8.68 15.48C8.68 11.74 11.74 8.68 15.48 8.68L24.52 8.68C28.26 8.68 31.32 11.74 31.32 15.48L31.32 24.52C31.32 28.26 28.26 31.32 24.52 31.32ZM10.81 15.48L10.81 24.52C10.81 27.1 12.91 29.19 15.48 29.19L24.52 29.19C27.1 29.19 29.19 27.09 29.19 24.52L29.19 15.48C29.19 12.9 27.09 10.81 24.52 10.81L15.48 10.81C12.9 10.81 10.81 12.91 10.81 15.48Z" />
</svg>