<svg width="40" height="40" viewBox="0 0 40 40" fill="none" xmlns="http://www.w3.org/2000/svg">
<path fill-rule="evenodd" clip-rule="evenodd" d="M17.2196 20.0828V30.4332C17.2196 30.5821 17.341 30.7035 17.49 30.7035H21.3355C21.4845 30.7035 21.6059 30.5821 21.6059 30.4332V19.9173H24.3921C24.53 19.9173 24.6514 19.8125 24.6624 19.669L24.9327 16.5021C24.9438 16.3421 24.8224 16.2097 24.6624 16.2097H21.6059V13.9587C21.6059 13.429 22.0307 13.0042 22.5603 13.0042H24.7065C24.8555 13.0042 24.9769 12.8828 24.9769 12.7339V9.56698C24.9769 9.41801 24.8555 9.29663 24.7065 9.29663H21.0762C18.9465 9.29663 17.2196 11.0235 17.2196 13.1532V16.2097H15.2996C15.1507 16.2097 15.0293 16.3311 15.0293 16.4801V19.647C15.0293 19.7959 15.1507 19.9173 15.2996 19.9173H17.2196V20.0828Z" fill="white"/>
</svg>
