<svg width="40" height="40" viewBox="0 0 40 40" fill="none" xmlns="http://www.w3.org/2000/svg">
<path d="M25.9916 15.3767C26.7229 15.3767 27.3158 14.7838 27.3158 14.0525C27.3158 13.3212 26.7229 12.7284 25.9916 12.7284C25.2603 12.7284 24.6675 13.3212 24.6675 14.0525C24.6675 14.7838 25.2603 15.3767 25.9916 15.3767Z" fill="white"/>
<path d="M20.0939 14.4277C17.0208 14.4277 14.5215 16.927 14.5215 20.0001C14.5215 23.0733 17.0208 25.5726 20.0939 25.5726C23.167 25.5726 25.6663 23.0733 25.6663 20.0001C25.6663 16.927 23.167 14.4277 20.0939 14.4277ZM20.0939 23.5698C18.1242 23.5698 16.5242 21.9698 16.5242 20.0001C16.5242 18.0305 18.1242 16.4305 20.0939 16.4305C22.0636 16.4305 23.6636 18.0305 23.6636 20.0001C23.6636 21.9698 22.0636 23.5698 20.0939 23.5698Z" fill="white"/>
<path d="M24.5186 31.3159H15.4813C11.7351 31.3159 8.68408 28.2649 8.68408 24.5187V15.4814C8.68408 11.7352 11.7351 8.6842 15.4813 8.6842H24.5186C28.2648 8.6842 31.3158 11.7352 31.3158 15.4814V24.5187C31.3158 28.2649 28.2648 31.3159 24.5186 31.3159ZM15.4813 10.8139C12.9048 10.8139 10.8137 12.9104 10.8137 15.4814V24.5187C10.8137 27.0952 12.9103 29.1863 15.4813 29.1863H24.5186C27.0951 29.1863 29.1861 27.0897 29.1861 24.5187V15.4814C29.1861 12.9049 27.0896 10.8139 24.5186 10.8139H15.4813V10.8139Z" fill="white"/>
</svg>
