<svg width="79" height="76" viewBox="0 0 79 76" fill="none" xmlns="http://www.w3.org/2000/svg">
<g clip-path="url(#clip0)">
<path d="M67.2186 65.0342C67.1029 63.7976 67.5318 62.5757 68.3751 61.6715C74.4855 55.1271 78.1912 46.52 78.1912 37.0919C78.1912 16.608 60.689 0 39.0956 0C17.5022 0 0 16.608 0 37.0919C0 57.5757 17.5022 74.1838 39.0956 74.1838C44.3482 74.1838 49.355 73.2013 53.9329 71.4174C54.9545 71.0166 56.087 71.0361 57.0989 71.4711L65.0453 74.8827C66.4909 75.5034 68.0812 74.3744 67.9366 72.825L67.2186 65.0342Z" fill="white"/>
<path d="M58.6699 20.9433C58.3085 22.0332 58.1013 22.6979 56.67 22.6979H24.8172C23.8005 22.6979 23.2945 23.1965 23.2945 24.1984L23.386 25.8309L23.521 35.2737C23.6125 42.566 22.909 48.8172 21.4199 54.0225C20.8224 56.173 19.9405 57.2434 18.7792 57.2434C17.4974 57.2434 16.8564 56.6373 16.8564 55.4301C16.8564 55.0977 17.1408 54.13 17.7046 52.5269C19.1647 48.4115 19.8972 41.1192 19.8972 30.6452C19.8972 30.6452 19.8972 26.1486 19.661 22.9716C19.3237 18.4262 18.678 17.5904 19.0346 17.175C19.2803 16.8915 21.2031 18.4066 23.8872 18.8465C26.2822 19.2375 28.6868 19.2082 30.4505 19.2082H52.4776C53.3161 19.2082 55.7256 18.9541 56.4918 18.607C57.4025 18.1965 58.1398 17.6784 59.2723 16.9648C59.8602 16.5836 59.1084 19.609 58.6699 20.9433Z" fill="#FF6666"/>
<path d="M18.7743 57.7322C17.2226 57.7322 16.3696 56.9159 16.3696 55.4301C16.3696 55.1564 16.4708 54.565 17.2467 52.3607C18.6827 48.3138 19.4103 41.0117 19.4103 30.6452C19.4103 30.6012 19.4055 26.129 19.1742 23.0108C19.0007 20.6452 18.7405 19.2962 18.5863 18.4897C18.4273 17.654 18.3454 17.2336 18.6682 16.8573C19.0104 16.4614 19.4682 16.6813 20.3115 17.087C21.1596 17.4976 22.4414 18.1134 23.9642 18.3627C26.1616 18.7195 28.3397 18.7195 30.0938 18.7146H30.4504H52.4775C53.3256 18.7146 55.6291 18.4555 56.2941 18.1525C56.9832 17.8397 57.5903 17.4536 58.3517 16.9599C58.5589 16.828 58.7758 16.6862 59.0119 16.5396C59.2914 16.3636 59.5516 16.4369 59.7058 16.5591C60.3564 17.0821 59.5131 19.9071 59.1228 21.0997L58.665 20.9433L59.1228 21.0997L58.665 20.9433L59.1179 21.1144C58.7517 22.2239 58.4337 23.1818 56.6651 23.1818H24.8171C24.0702 23.1818 23.7763 23.4653 23.7763 24.1935L23.863 25.8016L23.9979 35.2639C24.0895 42.5709 23.3715 48.9296 21.8728 54.1544C21.2222 56.5249 20.1765 57.7322 18.7743 57.7322ZM19.4344 17.7468C19.4585 17.8983 19.4971 18.0938 19.5356 18.2991C19.6947 19.1251 19.9597 20.5083 20.138 22.9325C20.3693 26.0899 20.3741 30.5963 20.3741 30.6403C20.3741 41.1144 19.6272 48.5337 18.1526 52.6833C17.4105 54.7801 17.3286 55.2981 17.3286 55.4252C17.3286 56.3685 17.7478 56.7497 18.7694 56.7497C19.685 56.7497 20.4175 55.7869 20.9476 53.8807C22.4221 48.7439 23.1209 42.4829 23.0341 35.2737L22.8992 25.8309L22.8125 24.218C22.8125 22.9277 23.5401 22.2043 24.8171 22.2043H56.6651C57.7397 22.2043 57.8602 21.8524 58.2023 20.8016L58.2072 20.782C58.5397 19.7654 58.8529 18.4702 58.9637 17.7175C58.93 17.737 58.8963 17.7615 58.8674 17.781C58.0674 18.2942 57.4361 18.6999 56.6844 19.0371C55.8122 19.433 53.3015 19.6823 52.4775 19.6823H30.0938C28.4072 19.6823 26.0845 19.6872 23.81 19.3157C22.1475 19.0469 20.7934 18.392 19.8971 17.957C19.7428 17.8886 19.5742 17.8104 19.4344 17.7468Z" fill="#FF6666"/>
<path d="M57.3931 38.5044C57.6774 38.7194 57.8172 39.0958 57.8172 39.6334C57.8172 40.1466 57.6726 40.5132 57.3931 40.7429C57.1088 40.9726 56.6413 41.085 55.9908 41.085H29.0533C28.4027 41.085 27.9256 40.9726 27.6269 40.7429C27.3281 40.5181 27.1787 40.1466 27.1787 39.6334C27.1787 39.1202 27.3281 38.7536 27.6269 38.5239C27.9256 38.2991 28.3979 38.1818 29.0533 38.1818H32.4554C33.6071 38.1818 34.542 37.2483 34.542 36.0948V35.6256C34.542 34.4721 33.6071 33.5386 32.4554 33.5386H30.4555C29.805 33.5386 29.3279 33.4311 29.0292 33.2209C28.7304 33.0058 28.581 32.6442 28.581 32.1358C28.581 31.6275 28.7304 31.2561 29.0292 31.0264C29.3279 30.8015 29.8002 30.6842 30.4555 30.6842H32.4554C33.6071 30.6842 34.542 29.7507 34.542 28.5972C34.542 27.346 35.0817 26.7204 36.1611 26.7204C37.2405 26.7204 37.7802 27.346 37.7802 28.5972C37.7802 29.7507 38.7151 30.6842 39.8668 30.6842H44.7194C45.8711 30.6842 46.806 29.7507 46.806 28.5972V28.5533C46.806 27.302 47.3457 26.6764 48.4252 26.6764C49.5046 26.6764 50.0443 27.302 50.0443 28.5533V28.5972C50.0443 29.7507 50.9792 30.6842 52.1309 30.6842H54.7282C55.3788 30.6842 55.8607 30.7967 56.1739 31.0264C56.4871 31.2561 56.6413 31.6227 56.6413 32.1358C56.6413 32.6197 56.4871 32.9765 56.1739 33.2013C55.8607 33.4311 55.3788 33.5435 54.7282 33.5435H52.1309C50.9792 33.5435 50.0443 34.477 50.0443 35.6305V36.0997C50.0443 37.2531 50.9792 38.1867 52.1309 38.1867H56.0053C56.6413 38.1867 57.1088 38.2942 57.3931 38.5044Z" fill="#FF6666"/>
<path d="M55.9906 41.8182H29.053C28.229 41.8182 27.6218 41.6569 27.1929 41.3294C26.8604 41.0753 26.4604 40.5718 26.4604 39.6383C26.4604 38.6999 26.8604 38.2014 27.1929 37.9423C27.6266 37.6148 28.2338 37.4536 29.053 37.4536H32.4551C33.2069 37.4536 33.8189 36.8475 33.8189 36.0997V35.6305C33.8189 34.8827 33.2069 34.2717 32.4551 34.2717H30.4553C29.6409 34.2717 29.0386 34.1251 28.6145 33.8172C28.2723 33.5728 27.8627 33.0792 27.8627 32.131C27.8627 31.1926 28.2627 30.694 28.5952 30.435C29.0289 30.1075 29.6361 29.9462 30.4553 29.9462H32.4551C33.2069 29.9462 33.8189 29.3402 33.8189 28.5924C33.8189 26.9355 34.6718 25.9824 36.1609 25.9824C37.6499 25.9824 38.5028 26.9355 38.5028 28.5924C38.5028 29.3402 39.1148 29.9462 39.8666 29.9462H44.7192C45.4709 29.9462 46.0829 29.3402 46.0829 28.5924C46.0829 26.8915 46.9359 25.9384 48.4201 25.9384C49.9091 25.9384 50.7621 26.8915 50.7621 28.5484C50.7621 29.3402 51.3741 29.9462 52.1258 29.9462H54.7232C55.5376 29.9462 56.1496 30.1026 56.5929 30.4252C56.9447 30.6794 57.3639 31.1828 57.3639 32.131C57.3639 33.0401 56.9447 33.5386 56.5977 33.7928C56.1544 34.1153 55.5424 34.2717 54.728 34.2717H52.1306C51.3789 34.2717 50.7669 34.8827 50.7669 35.6305V36.0997C50.7669 36.8475 51.3789 37.4536 52.1306 37.4536H56.005C56.8242 37.4536 57.4218 37.6051 57.841 37.9179C58.3181 38.2747 58.559 38.8563 58.559 39.6383C58.559 40.5669 58.1783 41.0655 57.8603 41.3196C57.4266 41.6569 56.8194 41.8182 55.9906 41.8182ZM29.053 38.9198C28.388 38.9198 28.1374 39.0567 28.0603 39.1153C27.9543 39.1935 27.9013 39.3695 27.9013 39.6383C27.9013 39.9022 27.9543 40.0831 28.0603 40.1613C28.1374 40.2199 28.3832 40.3568 29.053 40.3568H55.9906C56.6652 40.3568 56.8917 40.215 56.9447 40.1759C57.07 40.0733 57.0941 39.8289 57.0941 39.6432C57.0941 39.3695 57.0411 39.1642 56.9592 39.1007C56.9013 39.0567 56.67 38.9247 55.9857 38.9247H52.1114C50.5645 38.9247 49.3019 37.6588 49.3019 36.1046V35.6305C49.3019 34.0762 50.5597 32.8055 52.1114 32.8055H54.7087C55.3593 32.8055 55.6291 32.6784 55.7352 32.6002C55.7833 32.566 55.9038 32.478 55.9038 32.131C55.9038 31.74 55.7785 31.6471 55.7352 31.6178C55.6291 31.5445 55.3593 31.4125 54.7087 31.4125H52.1114C50.5645 31.4125 49.3019 30.1466 49.3019 28.5924C49.3019 27.4927 48.8972 27.4047 48.4056 27.4047C47.9189 27.4047 47.5141 27.4927 47.5141 28.5484C47.5141 30.1466 46.2564 31.4125 44.7047 31.4125H39.8618C38.3149 31.4125 37.0524 30.1466 37.0524 28.5924C37.0524 27.5367 36.6476 27.4487 36.156 27.4487C35.6645 27.4487 35.2597 27.5367 35.2597 28.5924C35.2597 30.1466 34.002 31.4125 32.4503 31.4125H30.4505C29.7855 31.4125 29.5349 31.5494 29.4578 31.608C29.3518 31.6862 29.2988 31.8622 29.2988 32.131C29.2988 32.3069 29.3229 32.5366 29.4385 32.6197C29.5156 32.6735 29.771 32.8055 30.4457 32.8055H32.4455C33.9924 32.8055 35.2549 34.0714 35.2549 35.6305V36.0997C35.2549 37.6539 33.9972 38.9198 32.4455 38.9198H29.053Z" fill="#FF6666"/>
<path d="M53.4367 45.1564C54.0343 45.6012 54.2897 46.3685 54.2029 47.4487V55.7331C54.2029 56.8133 53.9138 57.5953 53.3307 58.0694C52.7476 58.5435 51.808 58.7537 50.502 58.6999H35.0527C32.0457 58.6999 30.629 57.7126 30.7976 55.738V47.4096C30.7976 46.3294 31.0868 45.5572 31.6699 45.0929C32.2529 44.6334 33.1926 44.4282 34.4985 44.4819H50.4972C51.861 44.4868 52.8392 44.7116 53.4367 45.1564Z" fill="#FF6666"/>
<path d="M42.7341 55.611C39.5391 55.611 37.6791 54.0079 36.6815 52.6638C35.631 51.2512 35.313 49.8241 35.2985 49.7654C35.1732 49.1936 35.5587 48.6315 36.1611 48.5142C36.7586 48.3969 37.3465 48.7635 37.4718 49.3304C37.5104 49.5064 38.4645 53.4898 42.7341 53.4898C44.5074 53.4898 45.8471 52.8153 46.7096 51.4907C47.3746 50.4692 47.5192 49.4331 47.5192 49.4233C47.5915 48.8417 48.1457 48.4262 48.7528 48.4946C49.36 48.5631 49.7985 49.0909 49.7263 49.6726C49.7166 49.7312 49.5335 51.173 48.5986 52.6051C47.7023 53.9785 45.9627 55.611 42.7341 55.611Z" fill="white"/>
<path d="M42.7341 55.8554C39.4428 55.8554 37.5201 54.1985 36.4888 52.8104C35.3949 51.3392 35.0769 49.8778 35.0624 49.8143C34.9902 49.4868 35.0528 49.1447 35.2407 48.8563C35.4383 48.5533 35.7515 48.3431 36.1129 48.2698C36.8406 48.1281 37.5538 48.5777 37.7032 49.2767C37.7417 49.438 38.6477 53.2454 42.7293 53.2454C44.4159 53.2454 45.6881 52.61 46.5025 51.3539C47.1289 50.391 47.2735 49.3989 47.2735 49.3891C47.3602 48.6804 48.03 48.1721 48.7721 48.2503C49.1432 48.2894 49.4709 48.4751 49.6974 48.7635C49.9094 49.0323 50.001 49.3646 49.9576 49.7019C49.948 49.7654 49.7552 51.261 48.7914 52.742C47.871 54.1643 46.0688 55.8554 42.7341 55.8554ZM36.3828 48.739C36.325 48.739 36.2623 48.7439 36.2045 48.7586C35.9684 48.8075 35.766 48.9394 35.6407 49.1349C35.525 49.3109 35.4865 49.5162 35.5299 49.7214C35.5347 49.7361 35.8383 51.1388 36.8695 52.5269C37.8333 53.827 39.6355 55.3764 42.7293 55.3764C45.8519 55.3764 47.5289 53.8026 48.3866 52.4829C49.2878 51.0997 49.4661 49.7117 49.4757 49.653C49.4998 49.4477 49.442 49.2473 49.3167 49.0812C49.1721 48.8954 48.9601 48.7781 48.7191 48.7537C48.2372 48.7048 47.8084 49.0225 47.7505 49.4673C47.7457 49.5162 47.5963 50.5719 46.9024 51.6374C45.9917 53.0352 44.5894 53.7488 42.7293 53.7488C38.267 53.7488 37.2695 49.5748 37.2309 49.3989C37.149 49.003 36.7876 48.739 36.3828 48.739Z" fill="white"/>
</g>
<defs>
<clipPath id="clip0">
<rect width="78.1912" height="75.0635" fill="white"/>
</clipPath>
</defs>
</svg>
